<?xml version="1.0" encoding="utf-8"?>
<!-- Generator: Adobe Illustrator 23.0.5, SVG Export Plug-In . SVG Version: 6.00 Build 0)  -->
<svg version="1.1" id="Layer_1" xmlns="http://www.w3.org/2000/svg" xmlns:xlink="http://www.w3.org/1999/xlink" x="0px" y="0px"
	 viewBox="0 0 39.69 39.69" style="enable-background:new 0 0 39.69 39.69;" xml:space="preserve">
<style type="text/css">
	.st0{fill:#808285;}
</style>
<g>
	<g>
		<g>
			<path class="st0" d="M6.56,34.33c-0.7,0-1.36-0.3-1.94-0.88c-0.59-0.59-0.89-1.24-0.89-1.94V14.55
				c-1.58-0.97-2.59-2.73-2.59-4.57c0-1.91,1.02-3.67,2.66-4.61c0.17-0.09,0.37-0.09,0.53,0C4.5,5.48,4.6,5.65,4.6,5.84v3.53
				l1.85,1.04l1.86-1.04V5.84c0-0.19,0.1-0.37,0.27-0.46c0.17-0.1,0.37-0.1,0.53,0c1.64,0.93,2.66,2.7,2.66,4.61
				c0,1.81-0.91,3.49-2.39,4.46v17.07C9.38,33.04,8.09,34.33,6.56,34.33z M3.53,6.91C2.7,7.69,2.21,8.8,2.21,9.98
				c0,1.55,0.91,3.04,2.31,3.78c0.18,0.09,0.28,0.28,0.28,0.47v17.27c0,0.41,0.19,0.79,0.57,1.18c1.26,1.26,2.93,0.18,2.93-1.18
				V14.14c0-0.19,0.1-0.37,0.27-0.47c1.33-0.75,2.12-2.13,2.12-3.69c0-1.18-0.49-2.29-1.32-3.08v2.78c0,0.19-0.1,0.37-0.27,0.47
				L6.71,11.5c-0.16,0.09-0.36,0.09-0.53,0L3.8,10.15c-0.17-0.09-0.27-0.27-0.27-0.47V6.91z"/>
		</g>
	</g>
	<g>
		<path class="st0" d="M31.89,21.66H20.41c-0.3,0-0.54-0.24-0.54-0.54v-9.19c0-1.56,1.27-2.83,2.83-2.83h6.48
			c1.79,0,3.24,1.45,3.24,3.24v8.77C32.42,21.42,32.18,21.66,31.89,21.66z M20.94,20.58h10.41v-8.24c0-1.2-0.97-2.17-2.17-2.17H22.7
			c-0.97,0-1.76,0.79-1.76,1.76V20.58z M18.57,21.66H11.2c-0.3,0-0.54-0.24-0.54-0.54s0.24-0.54,0.54-0.54h6.84v-8.65
			c0-0.97-0.79-1.76-1.76-1.76h-2.9c-0.3,0-0.54-0.24-0.54-0.54s0.24-0.54,0.54-0.54h2.9c1.56,0,2.83,1.27,2.83,2.83v9.19
			C19.11,21.42,18.87,21.66,18.57,21.66z"/>
	</g>
	<g>
		<path class="st0" d="M35.4,34.38h-2.95c-0.27,0-0.5-0.2-0.53-0.47l-0.56-4.17c-0.02-0.15,0.03-0.31,0.13-0.42
			c0.1-0.12,0.25-0.18,0.4-0.18h2.95c0.27,0,0.5,0.2,0.53,0.47l0.56,4.17c0.02,0.15-0.03,0.31-0.13,0.42
			C35.7,34.31,35.55,34.38,35.4,34.38z M32.91,33.3h1.87l-0.41-3.1H32.5L32.91,33.3z"/>
	</g>
	<g>
		<path class="st0" d="M38.55,30.2H11.2c-0.3,0-0.54-0.24-0.54-0.54c0-0.3,0.24-0.54,0.54-0.54h26.27V18.06c0-0.49-0.4-0.9-0.9-0.9
			h-1.37v6.15c0,0.58-0.47,1.06-1.06,1.06H11.2c-0.3,0-0.54-0.24-0.54-0.54c0-0.3,0.24-0.54,0.54-0.54h22.95l-0.02-7.21h2.44
			c1.09,0,1.97,0.88,1.97,1.97V30.2z"/>
	</g>
</g>
</svg>
