<?xml version="1.0" encoding="utf-8"?>
<!-- Generator: Adobe Illustrator 23.0.5, SVG Export Plug-In . SVG Version: 6.00 Build 0)  -->
<svg version="1.1" id="Layer_1" xmlns="http://www.w3.org/2000/svg" xmlns:xlink="http://www.w3.org/1999/xlink" x="0px" y="0px"
	 viewBox="0 0 39.69 39.69" style="enable-background:new 0 0 39.69 39.69;" xml:space="preserve">
<style type="text/css">
	.st0{fill:#808285;}
</style>
<g>
	<path class="st0" d="M8.19,20.26c-0.26,0-0.47-0.21-0.47-0.47s0.21-0.47,0.47-0.47h16.57c0.26,0,0.47,0.21,0.47,0.47
		s-0.21,0.47-0.47,0.47H8.19z"/>
	<path class="st0" d="M30.88,31.93c-1,0-1.87-0.39-2.47-1.1c-0.59-0.7-0.83-1.64-0.67-2.63l0.02-0.14h-12.5l-0.04,0.25
		c-0.35,2-2.27,3.62-4.27,3.62c-1,0-1.87-0.39-2.47-1.1c-0.59-0.7-0.83-1.64-0.67-2.63l0.02-0.14h-3.3c-0.31,0-0.6-0.13-0.79-0.36
		c-0.19-0.23-0.27-0.54-0.22-0.85l0.24-1.37H1.13c-0.26,0-0.48-0.22-0.48-0.48s0.22-0.48,0.48-0.48h6.45c0.26,0,0.48,0.22,0.48,0.48
		s-0.22,0.48-0.48,0.48H4.76L4.48,27.1h3.69l0.03-0.07c0.75-1.5,2.32-2.51,3.9-2.51c1,0,1.87,0.39,2.47,1.1
		c0.33,0.4,0.55,0.86,0.66,1.38l0.02,0.1h11.4l0.84-4.76c0.04-0.23,0.24-0.4,0.47-0.4c0.21,0.03,0.32,0.1,0.39,0.2
		c0.07,0.1,0.1,0.23,0.08,0.36l-0.81,4.6h0.47l0.03-0.07c0.75-1.5,2.32-2.51,3.9-2.51c1,0,1.87,0.39,2.47,1.1
		c0.33,0.4,0.55,0.86,0.66,1.38l0.02,0.1h1.8l0.51-2.91h-0.72c-0.48,0-0.92-0.2-1.21-0.54c-0.29-0.35-0.41-0.83-0.33-1.31l0.23-1.29
		c0.04-0.23,0.24-0.4,0.47-0.4h2.15l-0.01-0.14c-0.03-0.35-0.16-0.66-0.37-0.92c-0.31-0.37-0.77-0.57-1.31-0.57h-7.34l-0.16,0.89
		c-0.04,0.23-0.24,0.4-0.47,0.4c-0.21-0.03-0.32-0.1-0.39-0.21c-0.07-0.1-0.1-0.23-0.08-0.36l1.95-11.05H7.96
		c-0.12,0-0.26,0.12-0.29,0.25L5.74,19.93c-0.04,0.23-0.24,0.4-0.47,0.4c-0.34-0.05-0.52-0.3-0.47-0.56L6.73,8.79
		c0.1-0.58,0.64-1.04,1.23-1.04h21.86c0.31,0,0.6,0.13,0.79,0.36c0.19,0.23,0.27,0.54,0.22,0.85l-0.24,1.37h4.59
		c0.66,0,1.23,0.26,1.63,0.73c0.39,0.47,0.55,1.12,0.44,1.77l-0.11,0.65c-0.04,0.23-0.24,0.39-0.47,0.4l-0.13,0l0.31,4.23l0.09,0.02
		c0.6,0.11,1.12,0.41,1.5,0.86c0.5,0.6,0.7,1.39,0.55,2.23l-1.14,6.45c-0.04,0.23-0.24,0.4-0.47,0.4h-2.19l-0.04,0.25
		C34.8,30.31,32.88,31.93,30.88,31.93z M32.02,25.48c-1.56,0-3.05,1.27-3.32,2.83c-0.13,0.73,0.03,1.41,0.45,1.91
		c0.41,0.49,1.02,0.76,1.73,0.76c1.56,0,3.05-1.27,3.32-2.83c0.13-0.73-0.03-1.41-0.45-1.91C33.35,25.75,32.73,25.48,32.02,25.48z
		 M12.1,25.48c-1.56,0-3.05,1.27-3.32,2.83c-0.13,0.73,0.03,1.41,0.45,1.91c0.41,0.49,1.02,0.76,1.73,0.76
		c1.56,0,3.05-1.27,3.32-2.83c0.13-0.73-0.03-1.41-0.45-1.91C13.42,25.75,12.81,25.48,12.1,25.48z M36.17,22.51
		c-0.04,0.21,0.01,0.39,0.12,0.53c0.11,0.13,0.27,0.2,0.47,0.2l0.89,0l0.29-1.62h-1.61L36.17,22.51z M29.22,18.07h6.65l-0.31-4.2
		h-5.6L29.22,18.07z M30.13,12.91h6.12l0.04-0.25c0.07-0.38-0.01-0.73-0.23-0.99c-0.21-0.25-0.52-0.38-0.89-0.38h-4.76L30.13,12.91z
		"/>
	<path class="st0" d="M11.42,29.35c-0.31,0-0.6-0.13-0.79-0.36c-0.19-0.23-0.27-0.54-0.22-0.85c0.1-0.58,0.64-1.04,1.23-1.04
		c0.31,0,0.6,0.13,0.79,0.36c0.19,0.23,0.27,0.54,0.22,0.85C12.55,28.9,12.01,29.35,11.42,29.35z"/>
	<path class="st0" d="M31.34,29.35c-0.31,0-0.6-0.13-0.79-0.36c-0.19-0.23-0.27-0.54-0.22-0.85c0.1-0.58,0.64-1.04,1.23-1.04
		c0.31,0,0.6,0.13,0.79,0.36c0.19,0.23,0.27,0.54,0.22,0.85C32.47,28.9,31.93,29.35,31.34,29.35z"/>
	<path class="st0" d="M2.88,22.9c-0.26,0-0.48-0.22-0.48-0.48c0-0.26,0.22-0.48,0.48-0.48h11.16c0.26,0,0.48,0.22,0.48,0.48
		c0,0.26-0.22,0.48-0.48,0.48H2.88z"/>
</g>
</svg>
